<?xml version="1.0" standalone="no"?>
<!DOCTYPE svg PUBLIC "-//W3C//DTD SVG 20010904//EN"
 "http://www.w3.org/TR/2001/REC-SVG-20010904/DTD/svg10.dtd">
<svg version="1.0" xmlns="http://www.w3.org/2000/svg"
 width="381.000000pt" height="381.000000pt" viewBox="0 0 381.000000 381.000000"
 preserveAspectRatio="xMidYMid meet">
<metadata>
Created by potrace 1.14, written by Peter Selinger 2001-2017
</metadata>
<g transform="translate(0.000000,381.000000) scale(0.100000,-0.100000)"
fill="#000000" stroke="none">
<path d="M1683 2789 c-224 -26 -414 -121 -608 -302 l-60 -56 -50 7 c-75 11
-272 7 -335 -7 -87 -19 -213 -86 -275 -147 -85 -84 -116 -159 -116 -284 0 -89
29 -156 97 -224 73 -72 134 -99 343 -151 51 -13 99 -29 106 -37 6 -7 20 -44
30 -83 10 -38 35 -109 55 -158 21 -48 34 -89 30 -92 -41 -25 -216 -1 -279 39
-52 33 -97 96 -106 146 l-7 40 -149 0 -149 0 0 -32 c0 -92 67 -242 140 -316
66 -67 187 -127 295 -147 68 -12 271 -6 345 10 108 25 107 23 57 82 -59 68
-117 149 -117 160 0 6 27 20 60 32 67 25 106 69 116 133 15 90 -87 167 -253
193 -23 4 -47 13 -54 21 -14 17 -24 243 -12 260 6 8 36 8 113 -2 321 -39 428
-101 490 -283 68 -202 -43 -459 -234 -542 -31 -13 -56 -27 -56 -30 0 -9 107
-92 166 -128 l51 -31 492 0 492 0 59 40 c63 43 210 168 210 179 0 4 -36 43
-79 87 -92 94 -149 178 -186 273 -34 91 -42 145 -41 295 1 69 -2 122 -6 118
-4 -5 -179 -547 -267 -832 -8 -25 -8 -25 -153 -28 l-145 -3 -28 88 c-15 49
-86 270 -157 493 -72 223 -132 412 -135 420 -3 13 -27 15 -152 12 l-148 -3
-11 38 c-6 21 -24 51 -38 67 -26 27 -116 76 -141 76 -18 0 -17 1 19 67 65 119
106 173 134 173 33 0 158 -74 204 -121 28 -28 50 -47 50 -42 0 5 -13 49 -30
98 -16 49 -30 90 -30 92 0 2 66 2 147 1 l146 -3 8 -25 c22 -71 274 -883 289
-929 12 -38 19 -48 22 -35 3 11 58 188 123 394 64 206 132 426 151 488 l35
112 139 0 c76 0 141 -4 144 -8 3 -5 -11 -57 -30 -118 -20 -60 -37 -119 -40
-131 -2 -12 -9 -34 -14 -49 -17 -45 -5 -37 33 21 47 69 137 157 193 186 40 22
44 22 62 6 19 -18 112 -187 112 -205 0 -6 -26 -38 -58 -71 -102 -105 -152
-227 -152 -371 0 -134 39 -236 127 -331 41 -44 53 -63 48 -79 -3 -11 -33 -60
-66 -110 -32 -50 -59 -96 -59 -103 0 -21 178 -90 250 -97 185 -19 322 8 442
89 l73 49 3 -69 3 -69 124 0 125 0 0 405 0 405 -300 0 -300 0 0 -135 0 -135
161 0 162 0 -7 -32 c-9 -45 -62 -123 -111 -163 -75 -62 -126 -78 -246 -79 -98
-1 -111 1 -168 28 -33 16 -61 33 -61 37 0 4 15 54 34 111 49 145 56 194 52
358 -3 117 -9 164 -30 245 l-26 100 22 17 c36 26 88 36 190 33 78 -2 101 -6
145 -29 74 -37 116 -77 149 -142 l29 -56 147 4 c80 2 149 6 152 9 6 6 -24 106
-47 159 -37 81 -138 191 -215 233 -181 98 -463 116 -667 44 l-41 -15 -93 89
c-184 176 -373 273 -591 304 -69 10 -198 11 -267 4z m-829 -610 c4 -3 1 -19
-5 -35 -6 -16 -24 -78 -39 -139 l-27 -110 -37 3 c-56 4 -147 42 -178 73 -66
65 -4 173 120 209 31 9 157 8 166 -1z"/>
</g>
</svg>
